# file written from a CGAL tool in Wavefront obj format
# 508 vertices
# 3048 halfedges
# 1016 facets


# 508 vertices
# ------------------------------------------

v 8733.0622373091646 2808.7463243788206 2282.4583087414089
vn -0.25349949117859627 -0.78869687567573354 -0.56008503485768057
v 8705.5553308964409 2796.4062919934222 2310.2000504579751
vn -0.028108614765629415 -0.99901275390868027 0.034400920100372032
v 8882.1514746389184 2830.4742872861752 2644.5515165450443
vn 0.94733767599321905 -0.29330117865935368 0.12855250382937206
v 8694.9473691476123 2796.7047639267221 2310.200113183158
vn -0.72315960365521348 -0.68754720112920087 0.065719356818495847
v 8890.1000000000004 2830.1999999999998 2644.1999999999998
vn 0.90610569491497228 -0.41640503859307287 0.074694802208430958
v 8691.2114970828643 2801.8740827432357 2310.1999994370558
vn -0.97726544401851811 -0.20319180591481689 0.06054206749330434
v 8724.6000000000004 2810 2282.4000000000001
vn -0.22052113796583109 -0.056172674464267144 -0.97376334822881194
v 8693.3158697268955 2808.4506088735352 2310.2001887833089
vn -0.87343022988967556 0.48213003293913836 0.068339336058918426
v 8705.6000000000004 2810.9000000000001 2310.1999999999998
vn -0.43945468868484239 0.89721998939820424 0.04331128279322418
v 8715.3999999999996 2815.6999999999998 2310.1999999999998
vn -0.99336170869691265 0.069459723692590597 0.091694397207784342
v 8722.8999999999996 2818.6999999999998 2310.1999999999998
vn -0.46016719606182016 0.13388059463050167 0.87767997473451886
v 8725.1260249646348 2804.7324776429414 2309.3916733557762
vn -0.52518097264821373 -0.83750560377714212 0.15089502844746369
v 8715.7000000000007 2834.6999999999998 2275.4000000000001
vn 0.050198761946343831 -0.028123622286862299 -0.99834320059212112
v 8731.5331927092011 2818.7416649533443 2311.3464845044527
vn -0.58729103521879922 0.7609200064496553 0.27584412942146824
v 8737.5 2825.1999999999998 2310.1999999999998
vn 0.010829439731715242 0.971592741840416 0.23641122485643534
v 8741.2000000000007 2828.1999999999998 2310.1999999999998
vn 0.27220546324681089 0.95911800846617146 0.077439212382838976
v 8711.8638426181005 2861.384673157128 2282.3566308143336
vn 0.1031352398666074 0.98059390208035901 -0.16672948599594692
v 8961.9597371738237 2716.8623491052003 2727.9314793414578
vn 0.45378353081432282 0.56180816309146742 0.69170231678481298
v 8755.6000000000004 2828.1999999999998 2310.1999999999998
vn 0.5512445847501154 0.77901394353664977 -0.29877530614016695
v 8947.1000000000004 2735.0999999999999 2727.6999999999998
vn 0.64843351449706454 0.19409070614134721 0.73611328955979205
v 8760.5154312033919 2829.8421612756138 2310.3580559517577
vn -0.01498172338562111 0.96977294173848561 -0.24354874139744731
v 8766.6000000000004 2827.6999999999998 2310.1999999999998
vn 0.1516848699901393 0.95946668158716442 -0.23751923530566812
v 8936.3055256292591 2745.0112704939938 2727.6913687832111
vn 0.43844045084225797 0.3077149354553077 0.84444152524788441
v 8770.3901270214119 2822.0663367364277 2309.4253152704214
vn 0.31528448291932887 0.41600738591807168 -0.85295577241255838
v 8926.2716243930463 2751.1411118084916 2727.7342086242811
vn 0.23297455051978611 0.38753361850978746 0.89193080075464048
v 8770.1456924773174 2807.5546454638061 2309.465501835236
vn 0.72384821690697287 -0.31403450704000307 -0.61435013410004091
v 8919.2999999999993 2753.0999999999999 2727.6999999999998
vn -0.30955643663999366 -0.037855269919502776 0.95012724993764464
v 8909.0945380441517 2749.6404468800665 2727.7342155866199
vn -0.69110913874601043 0.21643077511758943 0.68958384401300121
v 8906.2999999999993 2744.4000000000001 2727.6999999999998
vn -0.69186176149500989 -0.13447542856156453 0.70939668880972773
v 8761.3112793346645 2797.1535294163268 2309.0951002538131
vn 0.40145746383968417 -0.66661967158955526 -0.62805263965470448
v 8905.6918604139846 2734.9545365514314 2727.680584970386
vn -0.707263678227952 -0.18422344694740322 0.68252458641010538
v 8747.3868483408914 2787.7853116744409 2310.2966959471341
vn 0.20420995753980353 -0.83677531645918923 -0.5080407099890869
v 8912.476783632228 2716.8894516389792 2727.7063258543303
vn -0.57558945263378958 -0.53031086709217345 0.62246860664669812
v 8739.607780498196 2787.2000417478553 2310.188814890314
vn -0.29602085621193142 -0.84309656128075428 -0.44895416363379709
v 8927.340429984677 2702.383754115941 2727.548056212459
vn -0.80890924756220683 -0.26934283251819985 0.52260909653336263
v 8733.6257505057147 2791.7424288015709 2310.1766715961076
vn -0.53012060880123779 -0.6489325010993402 -0.54576437144720236
v 8727.8999999999996 2798.5999999999999 2310.1999999999998
vn -0.99104674376233926 -0.080742918380564979 -0.10633406231990662
v 8928.4685805086847 2688.5745538547508 2727.6728327315714
vn -0.75654886346277173 -0.42258808304050555 0.49905223099926055
v 8937.6177682474336 2674.2610017977568 2727.9221536668028
vn -0.83826042738420736 -0.43285273924239198 0.33159909832809248
v 8790.6823690525143 2818.4098562731124 2336.8634150468242
vn 0.8855805911089375 -0.10578182125147011 -0.45228002713348642
v 8937.3615763117814 2660.5521722723388 2727.6485513330499
vn -0.69465035544610254 -0.65848844676816121 0.28957529098916224
v 8790.9238799220147 2813.8239883691258 2341.2142216421198
vn 0.85115820314534552 -0.29399087946068053 -0.43485523569611351
v 8946.7733603641573 2650.6593268069737 2727.6783832101573
vn -0.48665347670065495 -0.81532488165529615 0.31370962842881045
v 8963.9930086239619 2651.1303460118374 2727.6199408662706
vn 0.21458527068562447 -0.90778405524483086 0.36039044194876613
v 8975.2933166273851 2667.2265237582851 2727.6846513268092
vn 0.57086375415961188 -0.68726456212030673 0.44920150916974583
v 8976.7999999999993 2676.8000000000002 2727.6999999999998
vn 0.6674216701526775 -0.48096349668610772 0.56852654209463505
v 8788.6000000000004 2799.1999999999998 2338.0999999999999
vn 0.87079484288146825 -0.35479382095728323 -0.3403493590732472
v 8787.3133644363697 2792.8918125558271 2338.0024339869915
vn 0.83561437121728754 -0.43670137057617348 -0.33322745317879904
v 8983.2999999999993 2679.8000000000002 2727.6999999999998
vn 0.44749606823760302 -0.72466133962282875 0.52403550620920136
v 8778.6225488096552 2785.3607196332541 2337.5708870972471
vn 0.47698834520203848 -0.78674959468937256 -0.39179994103818971
v 8996.825383229354 2684.2761071016771 2727.627778727463
vn 0.82470693551628027 -0.39698408237582039 0.40281771169050384
v 8757.2550096242394 2779.4325276518312 2337.8708112190025
vn -0.27335859682014413 -0.89989820925703812 -0.33979153980124011
v 9001.208960414473 2697.3858592224487 2727.714403557175
vn 0.91787826957343266 0.091552960875181652 0.38615740003251076
v 8993.596913989204 2707.4224897424251 2727.6986073418552
vn 0.57748269183478762 0.70199095021790758 0.41680024765276563
v 8985.7999999999993 2709 2727.6999999999998
vn 0.44637058179191708 0.82786429127806438 0.33969695161630986
v 8739.4127784184893 2779.0415437949237 2338.1080489108681
vn -0.3079500832297058 -0.94891570119219015 0.068744005336838623
v 8972.7846718182154 2709.2549081466168 2727.9621393253633
vn 0.41910215402434425 0.7921791023597079 0.44362783307263565
v 8949.2999999999993 2701 2734.6999999999998
vn -0.16233593557720155 0.14604481234616717 0.97586779678758095
v 8731.2537487288973 2786.1580094376159 2337.8846331400036
vn -0.87090809956603377 -0.42815027429333913 0.24126007695600579
v 8740.2999999999993 2830.6999999999998 2282.4000000000001
vn 0.22886682363646177 0.89745833605292258 -0.37707892023776124
v 8733.1516839620144 2838.7578757469464 2282.4267624558797
vn 0.11930003494776709 0.97330351895329892 -0.19608100788854302
v 8732.3999999999996 2796 2338.0999999999999
vn -0.96787184880600363 -0.10933678870342416 0.22642780510544927
v 8735.9856260682136 2802.2343510939395 2339.0029350532955
vn -0.95943210103377119 0.061378627236345767 0.27517759288231519
v 8700.2628398253291 2862.6122966928219 2282.4005819330118
vn -0.44480677399479196 0.88410779750981217 -0.14317938465678229
v 8735.8564661633663 2812.3280067522387 2338.2431982309417
vn 0.086173560908266236 -0.0072380792706916277 0.99625384697318009
v 8693.9347481229161 2853.3231044699196 2282.3830373155351
vn -0.81510963391022695 0.55558835190400491 -0.16406665698833414
v 8739.23670465959 2821.5893258411761 2340.5913690314683
vn -0.61715547375503388 0.67329463505496623 0.40717742523425782
v 8693.2510877090808 2829.0947264911065 2282.5409692153908
vn -0.93697570912450867 -0.28375226452990193 -0.20386557552656301
v 8713.428194144808 2816.4510473273012 2282.5152388178662
vn -0.96978213580342898 0.053778571739470052 -0.2379715829636016
v 8736.6212129052001 2811.3774053045363 2281.9165776834006
vn 0.0061447933515520756 -0.61807609367181804 -0.78609425894484986
v 8742.1932645303878 2817.2291320202103 2282.438483089531
vn 0.28287560008446 0.47512693910016657 -0.83320812923192444
v 8742.8999999999996 2823.4000000000001 2282.4000000000001
vn 0.51350238026509154 0.68524471674294951 -0.51648328495505058
v 8752.2000000000007 2824.8000000000002 2338.0999999999999
vn -0.082946923324947006 0.95120332757541415 0.29720706169333333
v 8751.6021662486055 2831.1682974691093 2309.9960413993972
vn 0.17321476844280506 0.97828417575075188 -0.11382756901988868
v 8958.5 2754.5 2699.9000000000001
vn 0.69493459714268535 0.42243435398486068 0.58190645491137749
v 8769.7999999999993 2830.1999999999998 2338.0999999999999
vn 0.12825830710555144 0.9838070541737769 -0.12519379703616834
v 8775.513203436627 2832.1232494734204 2336.7469933188513
vn -0.47896134151482933 0.82974058006153539 -0.28657739466584248
v 8954.8784321954899 2765.2914252308851 2700.5321647654619
vn 0.62785865869244961 0.44644542119530917 0.6375578331403835
v 8786.290963096706 2829.1455867725499 2333.8547329927496
vn 0.33421453019246755 -0.0069364518918734533 -0.94247150272216706
v 8945.8999999999996 2778.0999999999999 2699.9000000000001
vn 0.49207297847647841 0.64138773259138926 0.5886305805295573
v 8752.8999999999996 2783.1999999999998 2365.9000000000001
vn -0.61066128821540078 -0.65873731876382757 0.43949736739023865
v 8752.6000000000004 2800.1999999999998 2365.9000000000001
vn -0.91858397185893925 0.13430509475202518 0.37170637359010283
v 8751.4570889095594 2811.4076044607968 2366.8774997700125
vn -0.74668999453078655 0.52333801838754423 0.410574439752175
v 8939.7999999999993 2783.1999999999998 2699.9000000000001
vn 0.34769798634467219 0.75341203390000322 0.5581007234061971
v 8925.8633899774977 2789.1609653037217 2699.8313598339578
vn 0.41352255035425978 0.7301257062687706 0.54398120683902085
v 8764.6328337345385 2826.820543028789 2364.5910760872284
vn -0.25070324674088279 0.96354111441283607 0.093468726907185107
v 8913.6803898586713 2798.7317213613305 2699.9881553964833
vn 0.32136677174690259 0.77238189773768329 0.54785910785904546
v 8892.596140389498 2803.0440851829235 2699.9735500509942
vn 0.15440969257113063 0.7864029784699379 0.59810367186107405
v 8774.2052401829114 2840.2665817916391 2362.5107739011037
vn -0.47896134151482933 0.82974058006153539 -0.28657739466584248
v 8874 2802 2699.9000000000001
vn -0.25690737507838807 -0.0039145737331215055 0.96642810221082676
v 8783.6374783059546 2845.7324291193027 2365.961655801596
vn -0.20347449911982204 0.96345084183216212 -0.17424294413500871
v 8868.2000000000007 2801.0999999999999 2699.9000000000001
vn -0.89445519161106546 0.04558393920724324 0.44482807317699996
v 8793.3678207375306 2844.0987910730478 2365.4526343572134
vn 0.20924912655710973 0.93288461612383033 -0.29315711834199126
v 8863.2000000000007 2797.8000000000002 2699.9000000000001
vn -0.89374903835077391 0.15971822257217086 0.41916911363488268
v 8858.1642361893646 2789.0851723675733 2699.8800525890633
vn -0.92458088313482978 0.016738430557717492 0.38061793899405566
v 8799.1571220051119 2837.0253229387463 2365.7566659371651
vn 0.84302297390573899 0.3938867759093605 -0.36628605383068152
v 8860.7574659313832 2778.0208910609199 2699.7367815915636
vn -0.85104164557550865 -0.4340029180729324 0.29558346469366287
v 8873.1000000000004 2769.6999999999998 2699.9000000000001
vn -0.74979518305244663 -0.65901937362969698 0.059166279687586219
v 8884.2316457628513 2761.2598098280655 2698.7286880625425
vn -0.89249902223353217 0.0064628204605093123 0.45100302356401573
v 8793.2013738342994 2826.3233342728163 2364.7057686078952
vn 0.96141897642577845 -0.15203259522657753 -0.22925889678937225
v 8894.2486571878144 2746.0943669620547 2699.5618781389767
vn -0.94170241332499427 -0.14050370690093483 0.30570455195331625
v 8797.2268388988941 2822.429056494424 2365.726577510899
vn 0.82843067735907117 0.44171696664116084 -0.34436715027964276
v 8902 2737.5999999999999 2699.9000000000001
vn -0.9297653634976798 -0.32533979018030612 0.17230899502191332
v 8799.22050692013 2807.1074525419062 2365.5357098369386
vn 0.90390832948115429 -0.11988131520225097 -0.41058275920935539
v 8906.1605381808731 2722.8559578829118 2682.0652808532468
vn -0.82271015397238401 -0.5670714929388031 0.039723097146285385
v 8914.2000000000007 2715.5999999999999 2699.9000000000001
vn -0.76779371127392848 -0.63933284825033632 0.041789066468631134
v 8795.2000000000007 2798 2365.9000000000001
vn 0.84012776654338917 -0.40554039183648632 -0.36016985780590477
v 8786.2650910499342 2788.8389900574239 2365.8106901143929
vn 0.63241975787803795 -0.73079356157195929 -0.25687744200387602
v 8931.7999999999993 2693 2699.9000000000001
vn -0.8867367780319193 -0.45797667899126437 -0.062890762324072202
v 8937.1000000000004 2687.9000000000001 2699.9000000000001
vn -0.57746462187553882 -0.79402693968284799 -0.1898837263696698
v 8952.9899116898778 2680.2748589464904 2698.5423915688934
vn -0.57919994098085203 -0.63235394198561756 -0.51444719886789925
v 8963.9663643471213 2674.8115749984136 2698.9046427473968
vn 0.15123940626162516 -0.65347098644483292 -0.74168882414962134
v 8770.8111326539729 2778.8878338932677 2367.4091703233462
vn -0.077570789888087854 -0.99614653068378867 -0.040925077431692304
v 8975.1661671544098 2676.8264515979959 2697.059943017327
vn 0.67927723349195968 -0.661587846034289 -0.31762235758715007
v 8755.9205159712601 2777.8916288566616 2365.5602802424619
vn -0.47173762132849451 -0.87448928002999526 0.11283667726388692
v 8982.3468356862631 2686.413977515529 2699.8025754253849
vn 0.78320621396793944 -0.52474741425394411 -0.3335088868917977
v 8800.5396595509246 2828.6765195240605 2370.8915949346169
vn 0.87511420153169239 -0.21345163965076297 -0.43429659428545975
v 8980.9579156984819 2696.8051709032702 2698.3571545522727
vn 0.82138483811465168 0.20831695099656625 -0.53097174655800805
v 8977.4468124145624 2704.7225195183601 2704.2748951228132
vn 0.59850202060671287 0.79718089259557146 -0.079359661101909507
v 8973.2000000000007 2718.8000000000002 2699.9000000000001
vn 0.85204673847692924 0.43408319458722239 0.29255450026923019
v 8961.8596131580507 2733.2220411765175 2704.9159350518639
vn 0.84768158792557191 0.168056804685774 0.50318270627157724
v 8815.8438093185341 2821.3776326461366 2397.6777274973028
vn 0.8135162471842794 -0.097592754658535785 -0.57329483671612225
v 8946.8999999999996 2790.1999999999998 2672.0999999999999
vn 0.41992589913710965 0.83949729567542786 0.34482826129471061
v 8933.8749498995221 2794.0300787352248 2670.0796557753347
vn 0.55237263858466867 0.75549863790478144 0.35228720707262545
v 8816.5 2815.6999999999998 2393.6999999999998
vn 0.9196191524084748 0.1210687006058779 -0.37368835178143162
v 8816.5 2805.1999999999998 2393.6999999999998
vn 0.88944303025889504 -0.30690941282376311 -0.33867050099476831
v 8812.0145568178086 2790.9969162950729 2393.841947357193
vn 0.78220558636483806 -0.57466554756969501 -0.24065313024363996
v 8926.2999999999993 2796.5 2672.0999999999999
vn 0.37580643912569106 0.85378775144340557 0.36029986927125257
v 8797.1984633223346 2776.4660869551622 2393.7670947428046
vn 0.35628073834480917 -0.92753804950026708 -0.11285921412856689
v 8910.7328410761802 2805.0837797097174 2671.8015829178385
vn 0.28428129370389493 0.91520354279141414 0.28563371879398963
v 8901.6536444985322 2806.6385583010351 2670.0395307686708
vn 0.20723055436140286 0.92531163570668939 0.3175749898289798
v 8777.1298635362782 2776.9002019813679 2393.4624290450247
vn -0.050243365755846287 -0.99010836433518545 0.13100011859165583
v 8856.5519918427817 2827.2711132085487 2672.1414711646912
vn 0.67753669017008455 -0.3723924166743231 0.63424594715049165
v 8763.3999999999996 2788.6999999999998 2393.6999999999998
vn -0.46723569623486255 -0.79641981665268979 0.3839352547068568
v 8759.4436737086944 2799.6809162307472 2399.0493862843869
vn -0.92235972741006644 -0.23886587633442688 0.30363732704496982
v 8836.6566672802546 2833.6351021331202 2673.5321787394741
vn 0.25262645199746686 0.81622002445677178 0.51958131935911467
v 8759.1912588131017 2816.2344461947478 2396.324405514184
vn -0.90497386423158999 0.39091635340340586 0.16794853288887987
v 8827.0727228570286 2839.6713449808367 2672.2123400931409
vn 0.24472028353596262 0.75341423621473569 0.61031055332104867
v 8770.0875170965319 2831.4306926173849 2367.3039921626987
vn -0.69218007654310065 0.71379016817121033 -0.10672552393360614
v 8812.3619535061225 2839.2525532593791 2672.1359608625953
vn -0.37541313166362805 0.53712877735143538 0.75535267068797718
v 8808.8999999999996 2829.6999999999998 2672.0999999999999
vn -0.27457490565996195 0.37395876375740411 0.88586876239703638
v 8785.7123301801621 2843.9893242876224 2393.3388569575545
vn -0.27669834040024338 0.95826792659648563 0.071837380772291543
v 8809.7000000000007 2825.6999999999998 2672.0999999999999
vn 0.024488340668946094 0.14883575964690032 0.98855866685878158
v 8792.7220929806208 2847.0734613914283 2393.5020332734421
vn -0.32771200233916087 0.93658435318265421 -0.1241555189924594
v 8815.569140544836 2821.0657289667197 2673.23299935042
vn -0.33238569385176853 -0.77321874040970417 0.54004863670035197
v 8801.2999999999993 2846.0999999999999 2393.6999999999998
vn -0.018123909511203375 0.92219493571085442 -0.38630043289295296
v 8806.0352087367428 2841.754240147905 2391.5197621080151
vn 0.66353074675540025 0.46964557088735759 -0.58237443784571175
v 8819.2999999999993 2845.6999999999998 2421.5999999999999
vn 0.72980625095170315 0.24804839580307797 -0.63706736646240103
v 8828.0680657688536 2816.1022274470747 2672.8036827663036
vn -0.17734584845292883 -0.94657125153993438 0.26935351453922601
v 8818.3775533321423 2840.7349380140554 2422.5233867714169
vn 0.79772321455537232 0.18249758047540082 -0.57474542719369937
v 8845.2825880975561 2809.8091130665475 2672.5389681775546
vn -0.37143145753006362 -0.89692246266844322 0.23993492517319667
v 8822.5060724279101 2835.5315501910463 2421.7579051643156
vn 0.6853251802886724 0.42612896265936656 -0.59054509095000607
v 8855.4132655195008 2803.0540513685155 2673.9883386331617
vn -0.13177951399879881 -0.06475459735752255 0.98916176726120264
v 8825.7000000000007 2828.4000000000001 2421.5999999999999
vn 0.80076640390290943 0.17223708294429166 -0.57367896391557172
v 8826.1048139249924 2815.0855596667611 2421.7072090621841
vn 0.81853778246198916 -0.14897433251694489 -0.55479955563549255
v 8866.2329812895878 2799.6996555186415 2672.8949508491196
vn -0.98680679248449943 -0.1412079029104974 0.079200268068194885
v 8821.5 2806.0999999999999 2421.5999999999999
vn 0.76623839577662434 -0.47065303324929408 -0.43745221811176616
v 8813.9320232833925 2795.3925832786081 2422.9633026207262
vn 0.58893610096698645 -0.79025861120840635 -0.16925010011448871
v 8870.5030316057764 2792.6270251802316 2672.6111978845729
vn -0.99983886584368631 -0.015962359978129972 -0.0082125155914388355
v 8874.3089472615593 2779.0266959557503 2672.4405083103243
vn -0.84227458330977834 -0.53070259144810239 -0.094489606521605402
v 8877.5 2770 2672.0999999999999
vn -0.818101918367934 -0.57493797570207827 0.012472981131338939
v 8801.5953795409841 2785.543641207832 2420.6300777120323
vn 0.28759900995577464 -0.94660112328554069 0.14571589778404717
v 8882.9290131024845 2760.7659828713186 2672.9769976741882
vn -0.76664078729539786 -0.6344483136145338 0.098677457439714053
v 8787.2548064632774 2786.160064950669 2421.7467987491427
vn -0.29325489274458999 -0.90510307429933179 0.30787983496042298
v 8892.5275524734043 2739.8327840853708 2645.5488560641365
vn -0.80248621077243798 -0.56585231884060083 -0.18928030743531962
v 8774.6000000000004 2794.8000000000002 2421.5999999999999
vn -0.61030953790541487 -0.74542215109348209 0.26808223477292342
v 8775.0700437772994 2799.5296998720819 2449.797411297895
vn -0.70166790063494755 -0.70353521494312754 0.11269586750840921
v 8763.882420438611 2806.9477852657365 2421.2387251608325
vn -0.90680471041810728 -0.34319011246152131 0.24479739351590551
v 8896.8999999999996 2737.9000000000001 2672.0999999999999
vn -0.81723951020899099 -0.55804252006287858 0.14390319230385468
v 8909.057596548424 2719.3283515119965 2672.0061409445607
vn -0.77899772529171507 -0.62545390257838196 -0.044384228502988128
v 8918.3999999999996 2703.8000000000002 2672.0999999999999
vn -0.58627226396467103 -0.80003917015696835 -0.12736623854180718
v 8764.0857840348872 2816.9014907855862 2422.8304880432115
vn -0.90487592488589019 0.37486342800742789 0.20168532644797166
v 8931.5331681854295 2692.6691274957848 2672.6769487406314
vn -0.48570986539613392 -0.84401178984465253 -0.22744235590605297
v 8948.6598356542636 2687.8599931206845 2673.5553334699462
vn -0.2189661059620619 -0.91991948295008585 -0.32527217730488078
v 8964.5044251194049 2689.7994874952492 2669.3025510619409
vn 0.23054467122105798 -0.78491181869656312 -0.57511963228708152
v 8771.5783893125626 2828.9128581891573 2415.5126872087458
vn -0.77394737458914831 0.62597167298836831 0.095733619918542748
v 8786.2000000000007 2841.4000000000001 2421.5999999999999
vn -0.78657480620235332 0.60935536738235596 -0.099930528318650416
v 8797.2999999999993 2852.4000000000001 2421.5999999999999
vn -0.37908607058280497 0.88947591124537373 -0.25519865674470299
v 8972.7000000000007 2695 2672.0999999999999
vn 0.80000756348727509 -0.38579536905054018 -0.45951042597781305
v 8979.9766373943312 2702.7544699992759 2672.4936355837781
vn 0.96083893153847044 -0.13669467990427431 -0.24104587141429851
v 8811.8999999999996 2856.6999999999998 2421.5999999999999
vn 0.080821576653025515 0.08256084970413359 -0.99330336697478816
v 8817.7222664760084 2852.3967340184781 2421.5735529576032
vn 0.72069364360451782 0.46557517263685366 -0.51365399900342268
v 8980.3999999999996 2729.3000000000002 2672.0999999999999
vn 0.97358806246221041 0.07814526734824144 0.21452179801164936
v 8979.2671481762482 2737.9490834890312 2672.0365362050088
vn 0.98836577366792866 0.13297801620222843 0.073823740414020331
v 8965.6118653408703 2739.8242468131284 2702.3894261672322
vn 0.82561546771475858 0.089095016835957483 0.5571545364126016
v 8771.4181856316645 2806.1507136522832 2449.1925946178271
vn -0.96640111114405947 -0.2215371648799084 0.13034637300860866
v 8975.1670192905331 2758.5370373491332 2670.9802125518745
vn 0.91701162908573441 0.34321329310482596 0.20321000850762305
v 8772.0288983233004 2823.7466415266172 2449.2063500928812
vn -0.94605182377348529 0.29660433895567939 0.13042934043966747
v 8967.7000000000007 2770.3000000000002 2672.0999999999999
vn 0.89682551553884815 0.38106597774611745 0.22470584167500979
v 8777.6605025825011 2834.4928596947138 2448.9127558084301
vn -0.86451531144911065 0.48349569487932348 -0.13727778153513132
v 8822 2803.5999999999999 2644.1999999999998
vn -0.0079208365823824171 -0.99982800498740287 0.016769638956913361
v 8831.8999999999996 2803.9000000000001 2644.1999999999998
vn -0.078008353142979825 -0.99422465720830755 -0.073702291951767501
v 8779.1269255433363 2844.979961211397 2449.202638504637
vn -0.9130926531518887 0.37376208072886596 -0.16298378376167763
v 8854.5 2801.1999999999998 2644.1999999999998
vn -0.18872663932158795 -0.95264149461983372 -0.23844588136277095
v 8790.2473962408985 2859.1877591649454 2447.8156558698074
vn -0.8010782941672917 0.50385264436006316 -0.32311929590384064
v 8859 2801.8000000000002 2644.1999999999998
vn 0.047978425103193979 -0.91966147364484796 -0.389770245937275
v 8863.7000000000007 2800.4000000000001 2644.1999999999998
vn -0.84534890483370217 -0.45577763464339272 -0.27866104294524979
v 8799.173767754346 2863.4085839487052 2441.9599098088329
vn -0.52865469867555626 0.74141159487502606 -0.41331955742878529
v 8861.1355651529921 2790.6514782916174 2643.6572514125396
vn -0.95473522671360456 -0.17651310073519594 -0.23942383369449385
v 8809.9922738129098 2869.2798901712613 2446.4807982300681
vn -0.096954741544076989 0.86658196079012317 -0.48952577391314817
v 8815.4534845811486 2876.892207148655 2449.9792625197479
vn -0.35319741429195045 0.82944283685328979 -0.43275416454408266
v 8866.1756614443075 2779.7249238972854 2644.2204274931401
vn -0.94156088496355705 -0.2820322384120314 -0.18417631878974619
v 8827.099274990207 2878.884654430612 2448.8130749396632
vn 0.083762359010572676 0.8337758231688438 -0.54571214381952382
v 8875.0094501433396 2760.8271053840199 2644.8253471109547
vn -0.80672882989139372 -0.57358208842317449 -0.14209920077949895
v 8834.5 2875.5 2449.4000000000001
vn 0.43875500853536697 0.73146001134551619 -0.52197729288499484
v 8836.593782250533 2870.4341520766611 2448.1297481607835
vn 0.71326595858011266 0.13826070143106239 -0.68712127806565837
v 8886.3450481032178 2752.2100139659633 2644.5059734519978
vn -0.76185762132030865 -0.63540965522510828 -0.12580753110553491
v 8831.2942404074729 2865.5294867600514 2445.5492651106033
vn 0.72151237158282633 0.10576688756984311 -0.68427572158210725
v 8902.3184857763317 2727.0850938530821 2644.3007735000306
vn -0.70614313787255956 -0.66093335754856031 -0.2540255217789788
v 8918.574284185328 2713.2576572162161 2644.4339671856296
vn -0.55676407600713074 -0.71000659200961214 -0.43116632866078725
v 8844.3236809143691 2863.2141377168155 2449.2828499936913
vn 0.51055678328829934 0.53516384356835922 -0.67300180651722286
v 8929.7999999999993 2710.9000000000001 2644.1999999999998
vn -0.29725993948594098 -0.76208261825055057 -0.57521005844578221
v 8848.7909868128881 2853.539717741925 2449.545470036011
vn 0.6304013962043814 0.12088107650186002 -0.7667997424408266
v 8943.2300863576511 2704.2795269126968 2644.1254803383454
vn -0.1891390521410691 -0.75891649003258654 -0.6231149012114835
v 8852.5 2840.6999999999998 2449.4000000000001
vn 0.69713125024314571 0.13061900465433113 -0.70494446274691769
v 8850.338591056392 2823.2172990659851 2447.7561954455259
vn 0.76900248373321289 -0.16652173026945344 -0.61717557741716988
v 8956.8104022929874 2703.6975113189083 2644.6645055494164
vn 0.27621872409460585 -0.76183166382138978 -0.58593150833410645
v 8850.9849769958128 2808.0938829776978 2449.1781197821815
vn 0.76219347523314507 -0.37115372723342427 -0.53038289666311655
v 8967.4113085901354 2710.7081702812793 2643.3559925208829
vn 0.59542666258179178 -0.52121233953060808 -0.6113957692098787
v 8848.7000000000007 2803.5 2449.4000000000001
vn 0.55686013463685269 -0.67692670906446539 -0.48132839206448103
v 8835.2000000000007 2791.5999999999999 2449.4000000000001
vn 0.56317642361292441 -0.7528053854299781 -0.34075851794808881
v 8826.375101621883 2788.3362018986645 2449.3946624975142
vn 0.38508160207225561 -0.87268810144849251 -0.3002126535236157
v 8973.2383658645376 2723.6108246956865 2643.214459138253
vn 0.79503368158269383 -0.35231024552095974 -0.49375999843044072
v 8806.7999999999993 2788.5 2449.4000000000001
vn 0.23170477857828109 -0.97262997732519463 -0.017430513256390116
v 8789.3108424717429 2791.9136535566549 2450.3219547262634
vn -0.31326036235391191 -0.94652043522735874 0.077246430823095694
v 8974.8246822023721 2745.6658287655155 2645.0881177952579
vn 0.96303499056307684 -0.20403854842214678 -0.1758746079141551
v 8970.3842828515044 2766.4024996995468 2643.2078746573557
vn 0.93556592574436814 0.34388602354629416 -0.080366668436616884
v 8773.0507406055076 2804.4202050162112 2476.4983535790243
vn -0.8890342901820889 -0.37984550049445653 -0.25560795495161165
v 8968.2999999999993 2777.6999999999998 2644.1999999999998
vn 0.91689447580422712 0.38980090947878626 -0.085789108919505586
v 8771.2000000000007 2810.5999999999999 2477.1999999999998
vn -0.96776219029150623 0.10082553542550005 -0.23080414738116745
v 8771.7569041514853 2824.5249533531623 2477.8411913579284
vn -0.95417348122564016 0.25157055140289514 -0.16206549723055269
v 8958.2793869383895 2784.2562506355553 2672.5831537029339
vn 0.64069004774337435 0.70812990839732171 0.29676302929407067
v 8776.8999999999996 2839.1999999999998 2477.1999999999998
vn -0.94212093983040279 0.21586530749876912 -0.25653519008420728
v 8781.1274735765401 2851.8654527740705 2474.2102893212996
vn -0.87354934592718081 0.38736393579171446 -0.2947214303001176
v 8956.0151548852136 2789.8418434053651 2652.259656331702
vn 0.67710621379356295 0.72095523798410133 0.14748125326777464
v 8939.9377660252485 2803.9724402504994 2640.3686094856484
vn 0.56755614723043835 0.78128912719968779 0.25974471979328317
v 8785.0269964155596 2872.2132592560083 2476.8649778090512
vn -0.78771016781511394 0.49750089875673181 -0.36332567657258846
v 8934.3570218334316 2811.190514368217 2643.4323364285456
vn 0.62304610913280023 0.77967367897825313 -0.062629866701077161
v 8796.3296038637582 2887.9677981426084 2480.4945634747637
vn -0.48333643703960255 0.76051053913925593 -0.43360074779453572
v 8920.6107334916378 2812.501835516603 2644.3634331246876
vn 0.35248903315296032 0.91588234435336247 0.19212239018052993
v 8811.0141708688134 2889.6727189269391 2476.7559896026423
vn 0.49779031684906661 0.56549460688933983 -0.65758699046618696
v 8909.5197541689904 2817.3672583389898 2644.7029647040472
vn 0.19384728934794962 0.95917691024445317 0.20591960389034511
v 8831.1934627023511 2888.8847483203645 2475.1367614597652
vn 0.060969932444188052 0.91636222916579135 -0.3956803410532963
v 8901.1795144247244 2817.5485883198867 2643.9352245786613
vn 0.0080462016236169855 0.99536071657885083 0.095876496239009637
v 8894.8999999999996 2819.5999999999999 2644.1999999999998
vn -0.072506073435774157 0.98928244653092479 -0.12674032626087836
v 8885.9788299308875 2813.7709062846352 2671.3349740719468
vn 0.29857699019995065 0.87479024169966468 0.38156757455289708
v 8881.8999999999996 2838.8000000000002 2644.1999999999998
vn 0.83035100124345096 0.53008640961153131 0.1718301867517886
v 8844.3999999999996 2889.4000000000001 2477.1999999999998
vn 0.43389189263161432 0.77489371642631921 -0.45964938132402916
v 8856.1154895820819 2884.8810652647239 2476.3628019230923
vn 0.47662873901388264 0.75082069288274689 -0.45726724383571155
v 8873.0885379930332 2852.6736122209841 2644.244099913537
vn 0.76501173060620498 0.59381826251024583 0.24927278861562888
v 8862.7999999999993 2878.5 2477.1999999999998
vn 0.66772978531402039 0.15483517876033884 -0.72812293002126116
v 8868.008127623074 2868.4445482559581 2476.7474195549685
vn 0.70287521984663304 0.44562363600087501 -0.5544240257807258
v 8864 2855.5 2644.1999999999998
vn 0.51749884202003271 0.80578669201521747 0.28792838602523796
v 8871.2000000000007 2855.4000000000001 2477.1999999999998
vn 0.84375106388371457 0.13583923922791438 -0.51926086245843839
v 8876.8413023058984 2840.1489282495272 2477.1815843610848
vn 0.86931880132332895 0.076546202747601599 -0.4882883374715124
v 8848.8437333496804 2860.5118566522738 2644.2036734581188
vn 0.26056365435198525 0.8973357326964333 0.35622347600473259
v 8875.7557834842337 2822.1062990372411 2476.9525489394332
vn 0.85272149472320036 -0.27735656263761471 -0.44265041466023486
v 8831 2860.6999999999998 2644.1999999999998
vn 0.24271181533212224 0.87185155365500289 0.42540080287599791
v 8868.0564005988635 2806.6573081041161 2477.0586881561135
vn 0.85247279151775368 -0.41525690201799376 -0.31757179510836081
v 8820 2862.0999999999999 2644.1999999999998
vn 0.23122535828875723 0.77085294180089792 0.59356598268527605
v 8857.6088885509325 2796.9398270372694 2477.7911395953552
vn 0.60751136662924299 -0.726461746394645 -0.32122152860839215
v 8795.0146169131112 2861.5601459552881 2644.3705511304252
vn -0.17781898459867709 0.46379928544183846 0.86791164961644318
v 8844.2000000000007 2792.6999999999998 2477.1999999999998
vn 0.44548976713540406 -0.87624953948853268 -0.18364534277726197
v 8821.9056745839698 2786.6897678816476 2477.2063326529715
vn 0.17180442009892888 -0.96715108342192202 -0.1873553390492867
v 8782.8999999999996 2863.5 2644.1999999999998
vn 0.25963560159567223 0.57402140373057053 0.77658791031230889
v 8772.4602812452904 2865.5492957518663 2645.6721681878216
vn -0.27457490565996195 0.37395876375740411 0.88586876239703638
v 8796.1000000000004 2787.0999999999999 2477.1999999999998
vn 0.00795199747462072 -0.96731800553242198 -0.25344159467013444
v 8790.8999999999996 2789.0999999999999 2477.1999999999998
vn -0.17948141009951518 -0.93138019874396183 -0.3167291410911659
v 8779.5932368321683 2796.9479496962999 2477.1224556241036
vn -0.31062946604086555 -0.58275825168542661 -0.75093418814148549
v 8763.8999999999996 2868.1999999999998 2644.1999999999998
vn 0.27648648060922787 0.71004341812069338 0.6476060302558998
v 8883.5316084076894 2872.9751677758409 2504.8798262921432
vn 0.77377698253093141 0.52454469733362419 -0.35513665229669439
v 8751.5 2876 2644.1999999999998
vn 0.27199181050764853 0.72070471527035751 0.63765599534846717
v 8888.5411091433107 2861.343448445788 2505.0504528084366
vn 0.92790868429413575 0.1146467284796982 -0.35474159787150455
v 8745.3219798741411 2877.8619910276902 2644.3589735597125
vn -0.77618084479648208 0.12984253191017445 0.61699612079669897
v 8886.4615326079511 2848.4276342049397 2503.4629856354604
vn 0.93860904617434804 0.086657451453478668 -0.33392146463991906
v 8739.8949569572633 2877.5596136308468 2644.331485343625
vn -0.85892863935484665 0.26462037358854223 0.43842633403787701
v 8884.8999999999996 2832.3000000000002 2505.0999999999999
vn 0.90523675021762318 -0.34988385742093187 -0.24109689415603333
v 8881.2999999999993 2821.5999999999999 2505.0999999999999
vn 0.70528780866534824 -0.70683672188396196 -0.054322698242684285
v 8875.7376338730901 2811.9427203931491 2505.0890138618543
vn 0.78407957692375052 -0.61929425876636357 0.041156264530358214
v 8732.1972369580835 2874.9811561513088 2644.2094271737869
vn -0.94732594316135466 0.16091955550381534 0.27690874682809213
v 8847 2786.4000000000001 2505.0999999999999
vn 0.42383096432063916 -0.90321213633732045 0.067639858486034751
v 8834.1177528626904 2780.0179776936002 2505.1882843542858
vn 0.27915631104664995 -0.9593769149627227 0.040837348584780782
v 8726.7999999999993 2868 2644.1999999999998
vn -0.9761090978097412 0.217280983619658 -5.7708986918478876e-05
v 8799.2000000000007 2776.1999999999998 2505.0999999999999
vn 0.21036033905214091 -0.97728663556984752 -0.025678000125328847
v 8792.5 2773.1999999999998 2505.0999999999999
vn 0.042160854808028489 -0.99403988426696566 -0.10053442598619527
v 8781.3841875522903 2769.5740591232111 2505.3244189722946
vn 0.16360318477121469 -0.97120690130088083 -0.17317953920211468
v 8726.245891718625 2855.481028135227 2644.3636690218314
vn -0.94702895806111653 0.072367473686809861 0.31288832088440849
v 8732.9990884940398 2848.5806487483278 2644.0753016689314
vn -0.84772693933436494 -0.21812591218383387 0.48350814135933662
v 8773.3000071066381 2761.0198752487663 2505.1063706668606
vn 0.26187084977913072 -0.94299415214901339 -0.20539154570896856
v 8730.4662099489251 2839.3973042183825 2644.1960921164646
vn -0.84639146222832284 0.071861311642417991 0.52769067128009095
v 8732.2949044516135 2830.3278912127162 2644.0021413489012
vn -0.8686194233004747 -0.039242689438455963 0.49392338352297871
v 8763.1468675608885 2762.9723984573898 2504.9110139799013
vn -0.35927126920377528 -0.89573575583366694 -0.26188090966276578
v 8743.2000000000007 2822 2644.1999999999998
vn -0.3458596223888542 -0.14729529719367945 0.92665269493249991
v 8758.8917150571506 2768.6651083339184 2505.1000268144548
vn -0.89942337378793313 -0.31570326430253137 -0.30227312747357787
v 8753.145400467396 2813.3393498503451 2644.1158631474755
vn -0.084414583324987094 -0.8197043090692604 0.56653245610057956
v 8760.7999999999993 2811.3000000000002 2644.1999999999998
vn -0.056097031741822886 -0.95253811918991893 0.29920604024633013
v 8759.826224838569 2775.4877627330707 2505.2536895463645
vn -0.80039936607017947 -0.57230131847846488 -0.17841540197602207
v 8772.5333079757038 2805.5179690548334 2644.287235779705
vn 0.011867022209966285 -0.96774368136971145 0.25165718935263198
v 8754.2292982958206 2784.2907699077946 2504.5966813589257
vn -0.84186863880053975 -0.28643155729695646 -0.45739934191969134
v 8745.6700507720088 2783.8100606681483 2532.9469232661972
vn -0.87538530452673136 -0.43061367163871034 0.21970988693381763
v 8801.3999999999996 2803.5 2644.1999999999998
vn -0.31653468332769918 -0.94545345692017491 0.076964635049640295
v 8756.7999999999993 2795.1999999999998 2505.0999999999999
vn -0.83798017792168289 -0.1958531019388742 -0.50934348319308609
v 8756.8255935480083 2813.5472303010356 2504.686748634731
vn -0.87169669339181932 0.13688914110308231 -0.47053824263053162
v 8809.1920191506033 2802.2846817786985 2644.4333732083091
vn -0.12039776897490499 -0.99270967302868351 0.0056464414589681346
v 8736.8013956789346 2803.0104451431635 2617.0052003023434
vn 0.08895446832535947 -0.98444687485241911 0.1514973701364413
v 8744.9850106032263 2805.1876826279458 2617.4850597075529
vn -0.16303218870546685 -0.95682746610074354 0.2406277323193142
v 8763.1000000000004 2833.9000000000001 2505.0999999999999
vn -0.94504368966373298 0.13856918341602328 -0.29612667227754791
v 8763.9233537233595 2856.0768466975005 2504.8600391011805
vn -0.94067351023147039 0.24740321184108929 -0.23221756591506365
v 8760.1000000000004 2810.3000000000002 2616.4000000000001
vn 0.15006314880188146 -0.98816593296555721 0.03176696866202923
v 8772.9257056577517 2879.461383083506 2505.0799851113052
vn -0.81291880206509914 0.53649733182766868 -0.22656927018207135
v 8768.2000000000007 2815.4000000000001 2616.4000000000001
vn 0.060619913499256127 -0.99130469188051074 -0.11679141211162831
v 8777.6387565343066 2819.7774718116993 2616.3421493625974
vn 0.10618156544392497 -0.98749028324756327 -0.11656935983149622
v 8782.5 2886.6999999999998 2505.0999999999999
vn -0.71645199030404805 0.65399353172246599 -0.24287652429690312
v 8795.8251934916188 2900.8870085927838 2502.9577392235587
vn -0.49415196388946619 0.77467023950862435 -0.39458821143545869
v 8790.6000000000004 2818.4000000000001 2616.4000000000001
vn 0.0043467593918265239 -0.99058645795605471 -0.13681949786805586
v 8813.3765306090336 2820.5461125614584 2616.4689165416971
vn -0.0487906607191428 -0.97404499729520888 -0.22103351481340111
v 8820.2999999999993 2819.6999999999998 2616.4000000000001
vn 0.0099839075196383985 -0.97295275561901873 -0.23078833792892828
v 8822.2630301044119 2905.6670941809498 2503.192912666646
vn 0.68858149871625773 0.64349564127094461 -0.33431852968534048
v 8840.0570212284765 2820.6204692028023 2616.4291098811409
vn 0.32934215281016499 -0.91507819559505621 -0.23273513342179744
v 8858.7000000000007 2831.5 2616.4000000000001
vn 0.66131138017262814 -0.58841771138566823 -0.46522237197046568
v 8821.5125909251074 2897.0118413697655 2502.9525878240602
vn 0.54284227541108754 0.7704078383156221 -0.33435613750664617
v 8874 2815.5 2626.8000000000002
vn 0.01553863516948357 0.042917960032623687 -0.99895775662622888
v 8827.9112147825308 2900.0269913583606 2505.0998265872995
vn -0.1635913490623282 0.9578679754012811 -0.23606527108538899
v 8889.2000000000007 2799.5 2616.4000000000001
vn -0.45548353822487869 0.53551798805398698 -0.71116470024654288
v 8841.3537538817855 2898.9663202075744 2504.3647923233416
vn 0.2257578530613491 0.933958086840737 -0.27704816152777573
v 8887.6288928794947 2788.25304207924 2615.3891567737742
vn -0.88766398601903707 -0.013043620105087434 -0.46030697572310225
v 8859 2890.5999999999999 2505.0999999999999
vn 0.40183247289065521 0.87544673294460973 -0.26855852529232815
v 8871.3999999999996 2883.4000000000001 2505.0999999999999
vn 0.68561657985638669 0.66932305395265057 -0.2862456198329123
v 8887.9732257365631 2774.906317477371 2615.6939675528847
vn -0.88973597636195123 -0.26785413533151015 -0.36962691264713748
v 8894.653184360699 2762.2851381977862 2616.4064501695457
vn -0.77427494854362322 -0.57089857353631712 -0.27308079901737486
v 8898.1757584827792 2754.076931182467 2616.9496956903845
vn -0.81856892709857743 -0.51277090269219694 -0.25886466143703973
v 8744.2999999999993 2792.5999999999999 2532.9000000000001
vn -0.91660185197984811 -0.39150921408464895 0.081003581611761397
v 8745.2715419360629 2805.9282025559155 2532.6486089081068
vn -0.96927419498178735 -0.24240424259244733 -0.041805718694818722
v 8909.0281249713771 2741.7256625142727 2617.1077010568906
vn -0.53478014414589936 -0.79118723090307952 -0.2967034935473602
v 8749.1000000000004 2817.5999999999999 2532.9000000000001
vn -0.97902198809603869 0.03584886943515405 -0.20057618349320838
v 8759.6410679129003 2825.0202305498005 2511.9288283157812
vn -0.87493881121089701 0.26875818294891923 -0.40280406618461234
v 8918.8640057698212 2735.8630317630627 2616.5635817895986
vn -0.060188121776604139 -0.89287345337688184 -0.4462671691395701
v 8759.3999999999996 2846.5999999999999 2532.9000000000001
vn -0.94036609679591832 0.27994248869963084 -0.19324545794783063
v 8769.7033425112095 2867.8492065494829 2532.6672779585833
vn -0.91703980334658175 0.34748630435127525 -0.19568154579917763
v 8937.9745517563551 2735.8611229061175 2616.9946860023624
vn 0.081082880610449562 -0.9299328413676855 -0.35867879365490063
v 8947.7999999999993 2735.6999999999998 2616.4000000000001
vn 0.042355002565246568 -0.77317887690954457 -0.63277205853181695
v 8773.8619503229984 2882.4367219652577 2533.237858634624
vn -0.81980942844160476 0.54118828699558774 -0.18715699040386086
v 8957.5 2736.5 2616.4000000000001
vn 0.44679357534049058 -0.67825412434668442 -0.58339252981262424
v 8781.7438466334388 2897.2749326225494 2532.6610895097838
vn -0.74245931776663532 0.632415215181515 -0.22091889251130276
v 8962.6188194710849 2739.4214424028905 2616.2053327375324
vn 0.74470013996252826 -0.43910438280886732 -0.50260227072490882
v 8968.1902479644705 2746.5584116778909 2617.7574731223594
vn 0.91311726908480384 -0.28918501078799519 -0.28738281513454672
v 8797.2000000000007 2908.9000000000001 2532.9000000000001
vn -0.43764810189883718 0.87416126018737073 -0.21049045130830291
v 8806.6512266494956 2906.642267390298 2506.2249594664459
vn 0.3085050650866718 0.91070029429358967 -0.27468090357619956
v 8967.7000000000007 2755.0999999999999 2616.4000000000001
vn 0.95373211063366381 -0.033790673222768332 -0.29875282684756121
v 8962.7468962129751 2768.2440431763353 2616.3874219458339
vn 0.97287256069024708 0.14670820631298934 -0.17887337100984846
v 8811.7827947260885 2907.4427038584813 2531.6119323368066
vn 0.52672452329027242 0.83957618500144204 -0.13294023523019496
v 8962.4750358651763 2785.4666102371784 2617.2333403377797
vn 0.91689447580422712 0.38980090947878626 -0.085789108919505586
v 8828.7183320881268 2904.4395140881402 2531.765931235303
vn 0.54284227541108754 0.7704078383156221 -0.33435613750664617
v 8954.7999999999993 2798.4000000000001 2616.4000000000001
vn 0.74079182997651527 0.67147855772839471 -0.018547537600461995
v 8945.8999999999996 2804.8000000000002 2616.4000000000001
vn 0.483114492323657 0.87366561449627334 0.057522007559754201
v 8853.1000000000004 2900.0999999999999 2532.9000000000001
vn 0.3249317081596112 0.94572658672560916 0.0045396247428600234
v 8872.8844327723273 2893.6368709200869 2533.376286357799
vn 0.52454764551777333 0.85025777783281953 0.043720462218008724
v 8936 2808.5999999999999 2616.4000000000001
vn 0.38938250164070543 0.92055600440629759 0.030950123869520268
v 8924.5571715156329 2807.5680512532172 2616.8243093767496
vn 0.81878797299802808 0.56658229039990016 0.092578417997844872
v 8888.7110039008021 2880.063076573545 2532.6124713240274
vn 0.80477191138170201 0.59275831912847599 0.031300890642695402
v 8925.3567858920942 2810.5152508588026 2620.1809296560941
vn 0.86572161426924621 0.48778261515310228 0.11222391430283842
v 8892.9691421577736 2868.4362286945161 2533.0007477496479
vn 0.89067505113013712 0.45455040776990591 0.009048761823572329
v 8919.7999999999993 2815.8000000000002 2616.4000000000001
vn 0.4296637062245145 0.88718702404411243 0.16819121237795298
v 8892.8999999999996 2850.8000000000002 2532.9000000000001
vn 0.95403803967423606 0.24551070432528835 -0.17186015511526118
v 8892 2837 2532.9000000000001
vn 0.93621147960315709 0.059260373078890545 -0.34640478293727117
v 8889.3999999999996 2830.3000000000002 2532.9000000000001
vn 0.026710254701844089 0.080297678135826611 -0.99641298926687916
v 8885.8999999999996 2825.9000000000001 2532.9000000000001
vn 0.26205762098319474 -0.80038831243257924 -0.5391700590777978
v 8879.3461500209742 2823.5998828998536 2532.2781157065947
vn 0.18943214038540113 -0.95874846825357274 -0.21193593090939905
v 8912.1440400796018 2817.030727941386 2616.6430290710996
vn -0.039058672394538772 0.99603439701212582 0.079936850572605134
v 8866 2812.6999999999998 2532.9000000000001
vn 0.29174629363551546 -0.9543607872447365 0.063871651924356232
v 8857.2910161045074 2805.2495326901881 2534.8887346585216
vn 0.35465614025224484 -0.91148197353569194 0.20837378458160241
v 8900.2000000000007 2811.6999999999998 2616.4000000000001
vn -0.24966805035983392 0.9683009712287004 -0.0076872457405171716
v 8845.1000000000004 2798.5 2532.9000000000001
vn 0.37479880138512855 -0.82172058262591074 0.42930308940095546
v 8831.5197220764439 2789.4695256089208 2529.9915817909077
vn 0.27753759438521336 -0.8717755793806351 0.40370809119762108
v 8892.1000000000004 2804 2616.4000000000001
vn -0.96815333792045211 0.25024669122720566 -0.0074637660281169672
v 8864.5408609820806 2842.0251013860943 2616.3226439978616
vn 0.73677531300629517 -0.33659759797438749 -0.58639934786998904
v 8862.8999999999996 2849.8000000000002 2616.4000000000001
vn 0.75930602301560879 0.64923788254435966 -0.044096885168181443
v 8801.8885239758638 2786.4828413276964 2533.2187868967171
vn 0.26821522586579172 -0.8885114792035842 0.3723008782385841
v 8859.8207963997993 2854.9760088788184 2620.898527879116
vn 0.66792682851581076 0.74311571142250388 0.040654534628216187
v 8782.7000000000007 2778.4000000000001 2532.9000000000001
vn 0.11697745939010194 -0.89329819406935973 0.4339753569813124
v 8770.8999999999996 2774.8000000000002 2532.9000000000001
vn 0.27304098518302505 -0.85229272370175746 0.44614541747654746
v 8761.8999999999996 2774.6999999999998 2532.9000000000001
vn -0.72932828754099133 -0.58660935258177938 0.35209333486465039
v 8754.0967994490238 2776.0220862819297 2532.7300694311962
vn -0.57882534237168437 -0.75132514469472889 0.31697279059526084
v 8843.1000000000004 2865.0999999999999 2616.4000000000001
vn 0.39874044789517488 0.88816866749190704 0.22839105345438923
v 8917.2999999999993 2817.0999999999999 2560.6999999999998
vn 0.64495322171881342 0.6484211529329692 -0.40445685829715139
v 8920.3273086902554 2806.42063025477 2560.6593845389348
vn 0.75492546905936253 0.53209701024194767 -0.38335402418271569
v 8833.0705694166372 2871.2955520400114 2619.9363545766678
vn 0.4770670348541951 0.78841001052396387 0.38835125796246545
v 8929.6278578497931 2798.5904055393921 2560.9603665220648
vn 0.71735666372293982 0.6062257206543088 -0.34335083024431029
v 8820.6460857783513 2882.145504545937 2616.4641284192776
vn 0.30832593547873166 0.74989614195808107 0.58531264618795864
v 8935.001031274649 2788.1945143249141 2560.6864396089586
vn 0.66915735107688112 0.19179295910559946 -0.717944218123727
v 8812.7474783056496 2888.4524745905455 2616.7640193024299
vn 0.36041511353964611 0.76055197935204988 0.54005706424032907
v 8933.1000000000004 2775.5999999999999 2560.6999999999998
vn 0.61899889911802497 0.0066786688680726559 -0.78536345616079162
v 8929.9392982387708 2768.0990463987728 2560.5885115592955
vn 0.40756240000880434 -0.43939401206133905 -0.80051595378462204
v 8803 2894.3000000000002 2616.4000000000001
vn 0.40664654483471324 0.73446042887365692 0.54332905866768588
v 8923.6000000000004 2763.4000000000001 2560.6999999999998
vn 0.052089150330134996 -0.64102788422305124 -0.76574798208444739
v 8909.7283871771542 2760.0915123705872 2560.5685202143677
vn -0.1804245960399436 -0.78607397941163615 -0.59121456683320783
v 8797 2899.8000000000002 2616.4000000000001
vn 0.47188570535724056 0.67834736697991671 0.56317735287466386
v 8781.3822652091712 2908.6696441694457 2616.7887365173729
vn 0.57315080740011259 0.62746084604349806 0.52705885692110022
v 8899.2563082760716 2757.0197099392499 2588.5483559328786
vn -0.80912190048296706 -0.55067175716565564 -0.20513986940358697
v 8905.557330492793 2764.2970200449927 2560.4906738942736
vn -0.74006511759246074 -0.40546226081317294 -0.53656684278766942
v 8767.6000000000004 2912.9000000000001 2616.4000000000001
vn 0.095644735578235426 0.80347594618350271 0.58760402352323515
v 8898.9577338638846 2784.1906725419299 2560.661524632389
vn -0.94856336525645502 -0.15785347109808609 -0.27442635397431292
v 8757.5 2912.8000000000002 2616.4000000000001
vn -0.14643820316951817 0.87374727877066405 0.46381197213239589
v 8889.2999999999993 2798.1999999999998 2560.6999999999998
vn -0.38825271035039161 -0.76067107409910883 -0.52023009326112912
v 8883.0351360893983 2805.5499565718965 2560.3595035662274
vn -0.48321976983674164 -0.84061286979203842 -0.24468072498445753
v 8745.6000000000004 2914.3000000000002 2616.4000000000001
vn -0.53887785749389938 0.78245616785091299 0.31204647105014438
v 8878.2000000000007 2818.1999999999998 2578.0999999999999
vn -0.17593483083954564 -0.36761560937096505 0.91318437297419541
v 8876.0442817675539 2811.8160856938948 2560.5476186204196
vn -0.051870142734100205 -0.9983685338399636 -0.023869623603763785
v 8728.7106651135473 2913.1708865975761 2616.4003188031124
vn -0.54324134886411302 0.82714124374744458 0.14396596742365758
v 8721.2095940031377 2902.2527263657071 2616.3999816501041
vn -0.97946292880719299 0.1963696290899852 0.045731169496275745
v 8848.9602547789254 2812.576688136357 2556.5087403482466
vn 0.21345543712593601 -0.92356247831180505 0.31854218718394611
v 8723.3329278254459 2889.7468389965888 2616.3998875402485
vn -0.81600736039750255 -0.57232493461558731 -0.081093507720186253
v 8828.2999999999993 2807.8000000000002 2560.6999999999998
vn 0.29957167974796323 -0.84940142163889498 0.43448133862204924
v 8812.8945119611872 2802.01654640892 2560.0511583465232
vn 0.16748342322993193 -0.88061276393470989 0.44324988769141793
v 8728.8775827541031 2886.1963058148663 2617.5343200417956
vn -0.92333818505230547 0.29206495926213211 -0.2492882981520064
v 8739.7518247246626 2875.3551581383617 2615.9959068360931
vn -0.97889165413140011 0.18940960186460201 -0.076779764218082969
v 8743.6000000000004 2872 2616.4000000000001
vn -0.95930621694448281 -0.22989352566490717 -0.16395288649189305
v 8789.7000000000007 2795.1999999999998 2560.6999999999998
vn 0.10535332280217931 -0.86261669072235581 0.49476572462302948
v 8773.0512487120559 2798.0110764532183 2560.6320568582305
vn -0.031033100061195223 -0.86300754717594164 0.50423696831743381
v 8751.8584447546054 2867.3824354100871 2616.4000000000879
vn -0.68545838932175174 -0.70929539722902801 -0.16445922284306605
v 8761.8189265949568 2856.6454597096122 2616.4000000000246
vn -0.92116759717217633 0.38295050396763364 -0.069276037927801487
v 8761.5 2801.6999999999998 2560.6999999999998
vn -0.59933159909417888 -0.57326453999474103 0.5587212198510384
v 8756.1000000000004 2804.4000000000001 2560.6999999999998
vn -0.53706870114555993 -0.72335844152418771 0.43394674249903009
v 8748.8054941256451 2811.861115542717 2561.9416633146793
vn -0.83040343726424382 -0.53583637370678028 -0.15267452961282352
v 8745.5 2855.3000000000002 2616.4000000000001
vn -0.50095661191465024 0.86529085658705174 -0.017725870524198925
v 8746.121144143839 2819.5397092084813 2561.4838785310594
vn -0.7598350445504477 -0.53779028838461351 -0.3652838769946099
v 8738.5 2853.3000000000002 2616.4000000000001
vn -0.75658994694952253 0.63558351817160297 -0.15363998048531
v 8746.6086840675725 2832.9536802609032 2560.4151677168725
vn -0.88842606774888166 0.20484121734595087 -0.41077876992426038
v 8735.4575889509724 2850.3501496162871 2617.0886188596969
vn -0.99870087810585073 0.020992324528350564 -0.04643143742658927
v 8752.8834098500356 2860.2177224667776 2560.7793925125361
vn -0.85784593530114495 0.32131973501879652 -0.40106605338117818
v 8732.8115565728931 2837.5844019388942 2619.4877844447474
vn -0.96995767106132991 0.23511906376487471 0.062459124262271036
v 8760.7558278255456 2879.9171638192129 2559.7142265812581
vn -0.80145419124008543 0.44165294561839741 -0.403254082397554
v 8720.7462940910082 2823.1203476296855 2618.0274324581828
vn -0.97469651687573067 -0.0039902834137407412 0.22349670607996966
v 8770.2000000000007 2890.5999999999999 2560.6999999999998
vn -0.81617845587335791 0.37456678025299267 -0.43994596861329177
v 8775.7999999999993 2898.0999999999999 2560.6999999999998
vn -0.71477759157337095 0.49515518684970999 -0.49387684246216695
v 8779.1000000000004 2903.5999999999999 2560.6999999999998
vn 0.023894350051713711 0.91296685754369822 -0.40733349612128716
v 8786.3027685132329 2909.686155999832 2560.841628402175
vn -0.20280115175628535 0.96789386710373737 -0.14850304666671657
v 8715.5 2817.5999999999999 2616.4000000000001
vn -0.98455460909310777 0.17397890939741165 -0.019584708279804124
v 8798.7000000000007 2914.5999999999999 2560.6999999999998
vn 0.044421093326259348 0.99783152419480836 0.048569700336374963
v 8813.329028881577 2916.076716681986 2559.9175066062749
vn 0.46906613137390102 0.88219033069421993 0.041438928889934376
v 8707.0608415843526 2810.2645812148039 2616.4000000000146
vn -0.98392851011945626 0.12455960781023523 0.12794370276128295
v 8909.9505124174648 2744.335640796251 2588.528811332023
vn -0.52270811118371607 -0.8044461390662192 -0.28221027593658787
v 8917.2000000000007 2742.3000000000002 2588.5999999999999
vn -0.043939356947173838 -0.90429452925966736 -0.4246418929664213
v 8823.7613552276616 2909.4485562144846 2560.5690756921535
vn 0.51994434581734361 0.8281588278843115 0.20931037492168908
v 8921.5092540587812 2744.282504645656 2589.470209165479
vn 0.0985566093879814 -0.91678303869379674 -0.38703417770180637
v 8828.2018329141065 2902.1004083327798 2560.9092038342105
vn 0.59340409883485146 0.762445150401034 0.25797086679689751
v 8931.218611888231 2741.8389618923638 2588.2231387152683
vn 0.07384862352817681 -0.90115682167250988 -0.42715660308146242
v 8834.0116991366012 2900.4815433196072 2560.0270003708001
vn 0.32773190346706804 0.90143314076616099 0.2828605525312905
v 8940.2999999999993 2746.8000000000002 2588.5999999999999
vn 0.23405385186504371 -0.82808907707643564 -0.50939893487701104
v 8840.7000000000007 2899.1999999999998 2560.6999999999998
vn 0.29413196495755778 0.91171421283436882 0.28681628493865763
v 8852.2999999999993 2893.4000000000001 2560.6999999999998
vn 0.55507616454388453 0.72680497156594193 0.40453057345802756
v 8860.3104515212963 2889.7894827009695 2561.5500273642047
vn 0.46021148078197593 0.75602030905580175 0.46544461029388967
v 8947.3999999999996 2750.0999999999999 2588.5999999999999
vn 0.29097587054326862 -0.76857240499171942 -0.56976267080849674
v 8955.9869055365725 2757.7557869189059 2587.874321076195
vn 0.75645330095612229 -0.32213339058372098 -0.56921742958523525
v 8959.2999999999993 2763.8000000000002 2588.5999999999999
vn 0.88027497369821928 0.023519837131339434 -0.47388056295011149
v 8884.8329946664744 2868.5887212321541 2559.5284083884812
vn 0.66977401029903838 0.57639848619695444 0.46815335119787704
v 8959.6980370599704 2772.1816356467843 2587.9628021774233
vn 0.89716129361682173 0.060022190214109213 -0.43760592993890296
v 8954.9386978480488 2786.4213458112245 2588.6500896709667
vn 0.87356579067865436 0.21989795654842592 -0.434197763768774
v 8889.8999999999996 2864.6999999999998 2560.6999999999998
vn 0.80239038377030769 0.47719169580622772 0.35841004099566598
v 8898.7999999999993 2852.6999999999998 2560.6999999999998
vn 0.18873782037481315 0.86769821937298708 0.45986719306459822
v 8910.6000000000004 2833.1999999999998 2560.6999999999998
vn 0.60758932839562008 0.72648375195485815 -0.32102424544783448
v 8912.6000000000004 2828.8000000000002 2560.6999999999998
vn 0.5541358565335287 0.81488661235630533 -0.1699801797455143
v 8723.1000000000004 2818.9000000000001 2588.5999999999999
vn -0.94655022243761477 0.087865738015502681 -0.31035832272760655
v 8721.5542543327683 2826.250574630405 2589.0103488797686
vn -0.93727751468490461 0.066631257423641913 -0.34215659572808566
v 8942.8600842516771 2805.0621648056072 2588.704604599106
vn 0.62052835157686947 0.73540967974908844 -0.27224468373255001
v 8934.2000000000007 2814.4000000000001 2588.5999999999999
vn 0.76966160680839835 0.50851707365047405 0.38604584806868841
v 8724.5352393668418 2836.9304863220541 2588.456909551348
vn -0.85913637726553571 0.44958741291935006 -0.24445008366440976
v 8925.9969074520232 2821.1095886305911 2588.3486687641798
vn 0.70782106364082031 0.70457565714489956 -0.050620995893114626
v 8732.6000000000004 2849.4000000000001 2588.5999999999999
vn -0.84766100878015116 0.48680222784879229 -0.21093696962663772
v 8736.5 2858.1999999999998 2588.5999999999999
vn -0.68678215848152679 0.70319117684773991 -0.18399031386175088
v 8742 2867.9000000000001 2588.5999999999999
vn -0.78738043536182611 0.090312892683475074 0.60981606359997143
v 8747.2000000000007 2890.0999999999999 2588.5999999999999
vn -0.78841402511685077 0.0099298053091949872 -0.61506481281696435
v 8749.2999999999993 2905.5 2588.5999999999999
vn -0.33832153532662163 0.24838788946771756 -0.90765742166304697
v 8751.9930058035734 2913.0414181469068 2588.6081768028789
vn -0.44205662827191861 0.81324565282028149 -0.37844080854180745
v 8917.2999999999993 2823.6999999999998 2588.5999999999999
vn 0.55375229719739716 0.82826482052410444 0.085649170636840646
v 8763.5281677000185 2921.6646172441338 2588.004446944542
vn -0.36294892983217991 0.90022013525896161 -0.24056554700956687
v 8905.7000000000007 2823.4000000000001 2588.5999999999999
vn 0.39572460593873948 0.84583732104014453 0.35771673512747609
v 8778.2488871266614 2919.7099301457602 2588.5751130608305
vn 0.55261529816823673 0.82873609570475171 -0.088390134667141046
v 8897.8999999999996 2821.3000000000002 2588.5999999999999
vn 0.065143988961947216 0.81331224342472908 0.57816905434099464
v 8781.7344314220572 2911.8907780641762 2586.6169625987445
vn 0.23841591435003828 0.96557849281766239 -0.10400012496437983
v 8890.7661644976379 2814.1411687183418 2590.3829206530854
vn -0.79074396099487554 0.46826710704355351 0.39427135910587779
v 8889.2999999999993 2808.3000000000002 2588.5999999999999
vn -0.74823602479685369 0.0011342462448579364 0.66343165788320502
v 8893.2874323963078 2798.7063602149519 2592.9716537367613
vn -0.99701886231520864 -0.06772670419885031 -0.03696595360664183
v 8894.2999999999993 2789.4000000000001 2588.5999999999999
vn -0.98128125182593262 -0.13362448930512599 -0.13867804683104973
v 8893.5273914968056 2769.8668395208151 2588.618364877876
vn -0.95565303015270253 -0.25273731823218204 -0.15116591524798945
v 8794.8999999999996 2908.3000000000002 2588.5999999999999
vn 0.06823606976005013 0.97530899713596431 0.21003856524300746
v 8800.8999999999996 2905.1999999999998 2588.5999999999999
vn 0.31428340022718698 0.90028760034917377 0.30117798890218411
v 8810.9997697886793 2896.5210817353682 2590.9799152049995
vn 0.5067326401524378 0.75274886548233921 0.42022752993966406
v 8714.9910057359848 2797.1376270245682 2616.3441456134819
vn -0.50258502778226899 -0.85326093183041141 0.13911891338345717
v 8730.7719919506526 2808.526036385821 2588.3266126062372
vn -0.35268802308268909 -0.33745736292681155 -0.87277355973958481
v 8743 2805.6999999999998 2588.5999999999999
vn -0.43491897500100424 -0.87607690304850916 -0.20816999094252073
v 8834.8999999999996 2886.5 2588.5999999999999
vn 0.48187151139762913 0.77624347163693175 0.40650451319070086
v 8838.7999999999993 2881.0999999999999 2588.5999999999999
vn 0.56177058148576542 0.70877853629861354 0.42666942737855007
v 8856.7999999999993 2860.9000000000001 2588.5999999999999
vn 0.55366848686740033 0.73272868436627381 0.39567648623191226
v 8865.1834058063687 2855.155275490456 2588.47089727611
vn 0.7017642442519566 0.61726102413611827 0.35569055873316435
v 8750.7358800957227 2806.5525603925757 2582.8621988620835
vn -0.23671537265372777 -0.97005517385414985 -0.054394779420473459
v 8870.8621177651858 2846.764706559657 2588.4846548318455
vn 0.75998704647741977 0.39967100932339006 0.512525875925256
v 8763.2012937235158 2810.8210549206901 2586.1313675157271
vn 0.063677011285585006 -0.97475568908809584 0.21400136640714898
v 8773.9693611416988 2813.6665495228799 2588.8464080341118
vn 0.1680658526359059 -0.92863513781673268 0.33074257359744863
v 8871.2526434961765 2835.8527169149693 2588.6434650304782
vn 0.86216226672991214 -0.15298311380763222 0.48298280788953657
v 8784.9538386604781 2812.1869888886313 2588.4022029841585
vn 0.061754788254323248 -0.93459582575185796 0.35030984658565684
v 8800.2256342677138 2816.2031869302718 2588.4466139131332
vn 0.1545209678266623 -0.92972622546703731 0.3342639917501245
v 8867.2000000000007 2828 2588.5999999999999
vn 0.3027428412557156 -0.63290131671945682 0.71258872806352636
v 8864.7929921235864 2813.9928606174344 2560.5498004260216
vn 0.19810949124542918 -0.93338805279357873 0.29923130247467233
v 8817.7999999999993 2816.5999999999999 2588.5999999999999
vn 0.098360029467815316 -0.95939458807254607 0.26436211714275559
v 8855.5 2820.6999999999998 2588.5999999999999
vn 0.26346250158879775 -0.92852936010998022 0.26157357984002044
v 8847.1000000000004 2818.9000000000001 2588.5999999999999
vn 0.11951736787658863 -0.98346479276368337 0.13606101634978818
v 8825.5 2818.1999999999998 2588.5999999999999
vn 0.15871619738049769 -0.9626908671608555 0.2191699408544768

# 1016 facets
# ------------------------------------------

f  63 65 12
f  182 148 147
f  182 208 148
f  5 133 3
f  7 1 12
f  12 65 2
f  17 13 64
f  2 65 4
f  64 13 66
f  4 65 6
f  66 13 68
f  6 65 8
f  68 13 69
f  9 8 65
f  10 9 65
f  11 10 65
f  14 11 65
f  65 67 14
f  69 13 7
f  7 13 1
f  1 13 70
f  15 14 67
f  70 13 71
f  71 13 72
f  16 15 67
f  72 13 60
f  74 16 67
f  60 13 61
f  67 73 74
f  61 13 17
f  20 58 18
f  19 74 73
f  21 19 73
f  21 73 86
f  20 23 58
f  22 21 86
f  25 58 23
f  76 22 86
f  24 22 76
f  76 77 24
f  27 58 25
f  27 28 58
f  24 77 79
f  29 58 28
f  29 31 58
f  33 58 31
f  40 24 79
f  35 58 33
f  42 24 40
f  38 58 35
f  26 24 42
f  39 58 38
f  41 58 39
f  43 58 41
f  44 58 43
f  47 26 42
f  26 47 48
f  45 58 44
f  50 26 48
f  30 26 50
f  46 58 45
f  50 52 30
f  46 49 58
f  49 51 58
f  53 58 51
f  54 58 53
f  55 58 54
f  32 30 52
f  55 57 58
f  32 52 56
f  32 56 34
f  18 58 57
f  72 16 74
f  72 60 16
f  59 34 56
f  36 34 59
f  60 15 16
f  60 61 15
f  15 61 14
f  62 36 59
f  37 36 62
f  37 62 63
f  61 11 14
f  12 37 63
f  96 79 93
f  17 11 61
f  64 11 17
f  79 96 117
f  117 100 79
f  66 11 64
f  68 11 66
f  100 102 79
f  69 11 68
f  79 102 40
f  69 10 11
f  7 10 69
f  40 102 104
f  40 104 42
f  7 9 10
f  9 7 8
f  8 7 6
f  6 7 4
f  4 7 2
f  2 7 12
f  42 104 107
f  47 42 107
f  47 107 108
f  47 108 48
f  37 12 1
f  1 36 37
f  50 48 108
f  1 70 36
f  36 70 34
f  34 70 32
f  32 70 30
f  113 50 108
f  52 50 113
f  70 71 30
f  30 71 26
f  113 115 52
f  26 71 24
f  71 22 24
f  81 52 115
f  52 81 56
f  22 71 21
f  71 19 21
f  56 81 59
f  72 19 71
f  19 72 74
f  62 59 81
f  62 81 82
f  63 62 82
f  82 83 63
f  75 20 185
f  65 63 83
f  20 75 23
f  75 78 23
f  65 83 67
f  25 23 78
f  78 80 25
f  80 84 25
f  84 85 25
f  85 27 25
f  87 27 85
f  73 67 83
f  73 83 86
f  88 27 87
f  90 27 88
f  90 92 27
f  76 86 139
f  92 94 27
f  77 76 139
f  139 89 77
f  94 95 27
f  97 27 95
f  79 77 89
f  79 89 91
f  98 27 97
f  91 93 79
f  98 99 27
f  28 27 99
f  81 115 134
f  81 134 135
f  82 81 135
f  99 101 28
f  83 82 135
f  135 137 83
f  101 29 28
f  103 29 101
f  103 31 29
f  86 83 137
f  137 139 86
f  103 105 31
f  33 31 105
f  105 106 33
f  33 106 35
f  89 139 176
f  176 142 89
f  106 109 35
f  91 89 142
f  35 109 38
f  109 110 38
f  93 91 142
f  142 144 93
f  110 39 38
f  110 111 39
f  93 144 146
f  96 93 146
f  96 146 147
f  41 39 111
f  111 112 41
f  117 96 147
f  41 112 43
f  43 112 44
f  45 44 112
f  112 114 45
f  46 45 114
f  49 46 114
f  116 49 114
f  49 116 51
f  100 117 122
f  116 118 51
f  51 118 53
f  125 100 122
f  118 54 53
f  100 125 102
f  55 54 118
f  104 102 125
f  125 126 104
f  118 119 55
f  126 127 104
f  55 119 57
f  119 120 57
f  107 104 127
f  107 127 129
f  107 129 108
f  57 120 18
f  120 121 18
f  20 18 121
f  129 132 108
f  121 185 20
f  123 80 232
f  123 84 80
f  123 124 84
f  113 108 132
f  132 134 113
f  124 85 84
f  113 134 115
f  128 85 124
f  148 150 147
f  128 87 85
f  128 130 87
f  117 147 150
f  117 150 152
f  130 131 87
f  152 154 117
f  88 87 131
f  131 246 88
f  90 88 246
f  133 90 246
f  117 154 122
f  136 90 133
f  154 155 122
f  138 90 136
f  125 122 155
f  140 90 138
f  157 125 155
f  126 125 157
f  126 157 158
f  127 126 158
f  141 90 140
f  141 143 90
f  143 145 90
f  149 90 145
f  162 127 158
f  127 162 129
f  151 90 149
f  153 90 151
f  153 92 90
f  129 162 164
f  129 164 132
f  156 92 153
f  156 94 92
f  132 164 166
f  134 132 166
f  134 166 168
f  159 94 156
f  134 168 135
f  94 159 95
f  97 95 159
f  159 160 97
f  137 135 168
f  168 172 137
f  160 98 97
f  161 98 160
f  98 161 99
f  139 137 172
f  172 176 139
f  161 163 99
f  165 99 163
f  99 165 101
f  165 169 101
f  177 142 176
f  169 103 101
f  144 142 177
f  177 178 144
f  103 169 105
f  146 144 178
f  146 178 198
f  146 198 200
f  147 146 200
f  147 200 181
f  147 181 182
f  170 106 105
f  171 106 170
f  171 109 106
f  171 173 109
f  110 109 173
f  211 148 208
f  173 174 110
f  213 148 211
f  110 174 111
f  150 148 213
f  174 175 111
f  152 150 213
f  213 215 152
f  111 175 112
f  154 152 215
f  154 215 216
f  112 175 114
f  155 154 216
f  175 116 114
f  155 216 218
f  175 179 116
f  220 155 218
f  155 220 221
f  157 155 221
f  157 221 222
f  116 179 118
f  157 222 158
f  179 180 118
f  118 180 119
f  222 224 158
f  180 120 119
f  158 224 162
f  180 183 120
f  162 224 225
f  162 225 164
f  120 183 121
f  183 185 121
f  183 184 185
f  166 164 225
f  166 225 167
f  166 167 168
f  184 187 185
f  187 75 185
f  167 186 168
f  78 75 187
f  187 189 78
f  189 232 78
f  172 168 186
f  186 188 172
f  232 80 78
f  191 149 145
f  191 192 149
f  176 172 188
f  188 190 176
f  149 192 151
f  192 194 151
f  151 194 153
f  177 176 190
f  177 190 193
f  194 196 153
f  195 177 193
f  178 177 195
f  196 197 153
f  197 156 153
f  178 195 198
f  197 199 156
f  156 199 159
f  202 159 199
f  202 160 159
f  202 204 160
f  201 181 200
f  204 161 160
f  203 181 201
f  204 163 161
f  205 181 203
f  181 205 206
f  207 163 204
f  208 181 206
f  163 207 165
f  181 208 182
f  209 169 165
f  209 105 169
f  269 228 167
f  209 170 105
f  186 167 228
f  209 210 170
f  171 170 210
f  230 186 228
f  188 186 230
f  230 231 188
f  210 212 171
f  212 173 171
f  190 188 231
f  212 214 173
f  231 233 190
f  173 214 174
f  193 190 233
f  233 234 193
f  214 217 174
f  195 193 234
f  174 217 175
f  217 179 175
f  217 219 179
f  179 219 180
f  237 195 234
f  198 195 237
f  223 180 219
f  239 198 237
f  223 183 180
f  184 183 223
f  239 200 198
f  201 200 239
f  239 241 201
f  223 226 184
f  187 184 226
f  243 201 241
f  226 227 187
f  227 189 187
f  201 243 203
f  229 189 227
f  229 232 189
f  229 235 232
f  205 203 243
f  205 243 248
f  206 205 248
f  248 249 206
f  123 232 235
f  236 123 235
f  206 249 251
f  206 251 208
f  123 236 124
f  238 124 236
f  238 128 124
f  208 251 211
f  240 128 238
f  211 251 252
f  213 211 252
f  240 130 128
f  254 213 252
f  242 130 240
f  215 213 254
f  215 254 255
f  130 242 131
f  257 215 255
f  216 215 257
f  242 244 131
f  257 259 216
f  246 131 244
f  244 245 246
f  218 216 259
f  259 261 218
f  245 3 246
f  133 246 3
f  220 218 261
f  220 261 263
f  221 220 263
f  221 263 264
f  221 264 222
f  5 247 133
f  247 250 133
f  253 133 250
f  224 222 264
f  224 264 267
f  225 224 267
f  225 267 268
f  268 269 225
f  253 256 133
f  133 256 136
f  256 258 136
f  167 225 269
f  136 258 138
f  258 260 138
f  297 269 294
f  138 260 140
f  299 269 297
f  260 262 140
f  302 269 299
f  269 302 228
f  141 140 262
f  228 302 303
f  230 228 303
f  262 265 141
f  265 266 141
f  336 230 303
f  230 336 231
f  143 141 266
f  231 336 307
f  233 231 307
f  233 307 308
f  233 308 234
f  266 270 143
f  270 272 143
f  272 274 143
f  310 234 308
f  237 234 310
f  276 143 274
f  280 143 276
f  283 143 280
f  313 237 310
f  239 237 313
f  313 314 239
f  283 287 143
f  288 143 287
f  290 143 288
f  241 239 314
f  241 314 348
f  241 348 318
f  291 143 290
f  293 143 291
f  321 241 318
f  293 295 143
f  296 143 295
f  243 241 321
f  243 321 323
f  296 298 143
f  323 325 243
f  301 143 298
f  301 145 143
f  301 304 145
f  304 191 145
f  305 293 489
f  248 243 325
f  248 325 327
f  248 327 249
f  306 293 305
f  249 327 328
f  251 249 328
f  252 251 328
f  328 271 252
f  306 295 293
f  309 295 306
f  252 271 273
f  254 252 273
f  309 296 295
f  275 254 273
f  255 254 275
f  309 311 296
f  296 311 298
f  277 255 275
f  257 255 277
f  277 278 257
f  311 312 298
f  257 278 279
f  257 279 259
f  315 298 312
f  315 301 298
f  261 259 279
f  279 281 261
f  315 316 301
f  263 261 281
f  263 281 282
f  263 282 264
f  301 316 304
f  317 304 316
f  317 191 304
f  264 282 284
f  267 264 284
f  267 284 285
f  268 267 285
f  268 285 286
f  268 286 269
f  317 192 191
f  317 319 192
f  194 192 319
f  289 269 286
f  196 194 319
f  319 320 196
f  292 269 289
f  320 322 196
f  294 269 292
f  360 328 357
f  271 328 360
f  322 197 196
f  322 324 197
f  362 271 360
f  271 362 273
f  324 326 197
f  197 326 199
f  273 362 364
f  273 364 275
f  326 202 199
f  275 364 365
f  277 275 365
f  277 365 366
f  277 366 367
f  278 277 367
f  278 367 368
f  326 329 202
f  279 278 368
f  368 370 279
f  202 329 204
f  279 370 371
f  329 330 204
f  281 279 371
f  281 371 373
f  281 373 374
f  281 374 282
f  207 204 330
f  330 331 207
f  165 207 331
f  331 334 165
f  284 282 374
f  284 374 378
f  209 165 334
f  285 284 378
f  285 378 380
f  286 285 380
f  380 381 286
f  334 337 209
f  209 337 210
f  286 381 289
f  337 212 210
f  337 340 212
f  289 381 292
f  341 212 340
f  292 381 382
f  292 382 294
f  212 341 214
f  214 341 217
f  297 294 382
f  382 383 297
f  341 343 217
f  217 343 219
f  299 297 383
f  383 300 299
f  219 343 223
f  343 345 223
f  226 223 345
f  345 346 226
f  332 299 300
f  302 299 332
f  302 332 333
f  303 302 333
f  349 226 346
f  349 227 226
f  335 303 333
f  349 350 227
f  303 335 336
f  229 227 350
f  350 352 229
f  229 352 235
f  338 307 336
f  308 307 338
f  338 339 308
f  352 354 235
f  354 355 235
f  235 355 236
f  310 308 339
f  339 342 310
f  355 358 236
f  236 358 238
f  358 359 238
f  313 310 342
f  313 342 344
f  361 238 359
f  313 344 314
f  361 240 238
f  363 240 361
f  344 347 314
f  363 369 240
f  314 347 348
f  369 242 240
f  244 242 369
f  369 372 244
f  351 348 440
f  348 351 318
f  372 245 244
f  372 375 245
f  351 353 318
f  375 324 245
f  324 322 245
f  321 318 353
f  322 3 245
f  321 353 323
f  322 320 3
f  325 323 353
f  320 376 3
f  5 3 376
f  356 325 353
f  327 325 356
f  327 356 357
f  376 247 5
f  328 327 357
f  247 376 250
f  376 377 250
f  377 253 250
f  377 379 253
f  332 300 422
f  332 422 423
f  333 332 423
f  423 424 333
f  253 379 256
f  384 256 379
f  335 333 424
f  335 424 426
f  384 258 256
f  428 335 426
f  336 335 428
f  384 387 258
f  387 260 258
f  338 336 428
f  338 428 430
f  389 260 387
f  339 338 430
f  262 260 389
f  430 432 339
f  262 389 391
f  342 339 432
f  391 394 262
f  394 265 262
f  434 342 432
f  344 342 434
f  434 435 344
f  394 397 265
f  435 436 344
f  397 266 265
f  344 436 437
f  397 398 266
f  347 344 437
f  347 437 439
f  348 347 439
f  439 440 348
f  270 266 398
f  398 272 270
f  398 401 272
f  401 403 272
f  272 403 274
f  403 406 274
f  406 409 274
f  444 351 440
f  353 351 444
f  410 274 409
f  444 446 353
f  412 274 410
f  415 274 412
f  415 276 274
f  353 446 448
f  356 353 448
f  416 276 415
f  450 356 448
f  356 450 451
f  356 451 452
f  356 452 357
f  280 276 416
f  416 417 280
f  417 283 280
f  417 420 283
f  421 283 420
f  360 357 452
f  452 456 360
f  425 283 421
f  425 427 283
f  283 427 287
f  362 360 456
f  456 459 362
f  427 429 287
f  364 362 459
f  364 459 460
f  365 364 460
f  365 460 461
f  366 365 461
f  366 461 462
f  366 462 385
f  366 385 386
f  287 429 288
f  388 366 386
f  429 431 288
f  390 366 388
f  431 290 288
f  392 366 390
f  366 392 393
f  291 290 431
f  395 366 393
f  366 395 396
f  431 433 291
f  293 291 433
f  400 366 396
f  433 438 293
f  402 366 400
f  438 441 293
f  404 366 402
f  367 366 404
f  367 404 405
f  489 293 441
f  368 367 405
f  405 408 368
f  399 442 334
f  443 334 442
f  370 368 408
f  370 408 504
f  371 370 504
f  504 411 371
f  334 443 337
f  443 445 337
f  373 371 411
f  373 411 413
f  373 413 374
f  445 340 337
f  445 447 340
f  413 414 374
f  447 449 340
f  449 341 340
f  378 374 414
f  449 453 341
f  453 343 341
f  453 345 343
f  418 378 414
f  380 378 418
f  380 418 419
f  453 454 345
f  345 454 346
f  381 380 419
f  382 381 419
f  382 419 422
f  382 422 383
f  349 346 454
f  383 422 300
f  385 462 475
f  385 475 468
f  454 455 349
f  386 385 468
f  455 350 349
f  455 457 350
f  466 386 468
f  388 386 466
f  466 465 388
f  352 350 457
f  457 458 352
f  354 352 458
f  390 388 465
f  465 458 390
f  458 465 354
f  465 355 354
f  392 390 458
f  392 458 457
f  358 355 465
f  455 392 457
f  393 392 455
f  393 455 454
f  466 358 465
f  453 393 454
f  358 466 359
f  393 453 449
f  395 393 449
f  395 449 447
f  359 466 361
f  466 468 361
f  445 395 447
f  395 445 396
f  363 361 468
f  475 363 468
f  475 369 363
f  443 396 445
f  396 443 442
f  475 477 369
f  399 396 442
f  400 396 399
f  477 479 369
f  399 485 400
f  479 372 369
f  479 481 372
f  375 372 481
f  402 400 485
f  485 326 402
f  481 482 375
f  402 326 484
f  404 402 484
f  404 484 483
f  482 483 375
f  405 404 483
f  483 482 405
f  483 324 375
f  405 482 407
f  405 407 408
f  326 324 483
f  504 408 407
f  407 503 504
f  483 484 326
f  485 329 326
f  329 485 330
f  411 504 506
f  506 507 411
f  331 330 485
f  411 507 508
f  413 411 508
f  413 508 505
f  413 505 414
f  485 399 331
f  505 502 414
f  334 331 399
f  489 490 305
f  490 491 305
f  418 414 502
f  418 502 501
f  418 501 419
f  491 306 305
f  491 496 306
f  309 306 496
f  499 419 501
f  496 498 309
f  498 419 499
f  422 419 498
f  311 309 498
f  423 422 498
f  423 498 496
f  423 496 424
f  498 499 311
f  499 312 311
f  424 496 491
f  426 424 491
f  426 491 490
f  499 501 312
f  315 312 501
f  463 426 490
f  426 463 464
f  501 502 315
f  316 315 502
f  428 426 464
f  428 464 467
f  502 505 316
f  467 469 428
f  505 317 316
f  428 469 470
f  428 470 430
f  505 508 317
f  430 470 471
f  432 430 471
f  471 472 432
f  508 319 317
f  434 432 472
f  434 472 473
f  435 434 473
f  435 473 474
f  508 507 319
f  476 435 474
f  436 435 476
f  507 506 319
f  478 436 476
f  506 320 319
f  480 436 478
f  320 506 504
f  437 436 480
f  503 320 504
f  503 376 320
f  503 500 376
f  500 497 376
f  377 376 497
f  486 437 480
f  439 437 486
f  439 486 487
f  439 487 440
f  497 495 377
f  487 488 440
f  377 495 379
f  495 494 379
f  494 384 379
f  444 440 488
f  494 493 384
f  444 488 446
f  384 493 387
f  446 488 448
f  493 492 387
f  448 488 391
f  387 492 389
f  492 448 391
f  450 448 492
f  451 450 492
f  451 492 493
f  451 493 452
f  492 391 389
f  493 494 452
f  394 391 488
f  488 487 394
f  456 452 494
f  494 495 456
f  487 397 394
f  487 486 397
f  495 497 456
f  486 398 397
f  459 456 497
f  486 480 398
f  460 459 497
f  478 398 480
f  500 460 497
f  401 398 478
f  478 476 401
f  503 460 500
f  460 503 407
f  460 407 482
f  460 482 481
f  403 401 476
f  479 460 481
f  461 460 479
f  461 479 477
f  462 461 477
f  462 477 475
f  476 474 403
f  441 490 489
f  406 403 474
f  438 490 441
f  463 490 438
f  463 438 433
f  463 433 464
f  474 473 406
f  406 473 409
f  409 473 410
f  467 464 433
f  433 431 467
f  410 473 412
f  473 415 412
f  469 467 431
f  469 431 429
f  473 472 415
f  427 469 429
f  470 469 427
f  470 427 425
f  471 470 425
f  471 425 421
f  415 472 416
f  420 471 421
f  472 471 416
f  417 471 420
f  471 417 416

# End of Wavefront obj format #
